<svg xmlns="http://www.w3.org/2000/svg" width="48" height="48" fill="none"><circle cx="24" cy="24" r="24" fill="#DCA8FF"/><g fill="#fff" clip-path="url(#a)"><path d="M16.266 28.172v.663l.662.039c3.06.18 5.565-1.726 7.072-4.412 1.492 2.658 3.988 4.593 7.073 4.412l.661-.04v-.662c0-4.323-2.017-5.772-3.638-6.936-.41-.294-.783-.563-1.094-.856-.864.951-1.902 1.464-3.002 1.464-1.1 0-2.137-.513-3-1.465-.312.293-.686.562-1.096.857-1.62 1.164-3.638 2.613-3.638 6.936Z"/><path d="M24 20.438c2.064 0 3.516-3.071 3.516-4.922A3.52 3.52 0 0 0 24 12a3.52 3.52 0 0 0-3.516 3.516c0 1.853 1.458 4.921 3.516 4.921Zm10.594 3.515c0 1.386-.265 2.733-.786 4.003l1.3.535a11.968 11.968 0 0 0-5.274-14.998l-.682 1.229a10.56 10.56 0 0 1 5.442 9.231Zm-20.402 4.003a10.56 10.56 0 0 1 4.655-13.234l-.681-1.23a11.968 11.968 0 0 0-5.274 14.999l1.3-.535Zm20.448 2.521c-.129.016-6.312-1.453-10.64 3.677-4.36-5.189-10.463-3.655-10.64-3.677.005.01.13 2.464 1.885 4.117H12V36h24v-1.406h-3.283c1.833-1.653 1.834-3.79 1.923-4.117Z"/><path d="M24 26.888c-1.06 1.25-2.083 2.169-3.613 2.795l-.046.09c1.233.483 2.532 1.285 3.663 2.342 1.137-1.055 2.47-1.865 3.666-2.324l-.057-.108c-1.52-.622-2.547-1.536-3.613-2.795Z"/></g><defs><clipPath id="a"><path fill="#fff" d="M12 12h24v24H12z"/></clipPath></defs></svg>