<svg xmlns="http://www.w3.org/2000/svg" xmlns:xlink="http://www.w3.org/1999/xlink" width="500" zoomAndPan="magnify" viewBox="0 0 375 374.999991" height="500" preserveAspectRatio="xMidYMid meet" version="1.0"><defs><clipPath id="47c2de1623"><path d="M 8 223 L 163 223 L 163 354.378906 L 8 354.378906 Z M 8 223 " clip-rule="nonzero"/></clipPath><clipPath id="4c8f4cae93"><path d="M 177 223 L 332 223 L 332 354.378906 L 177 354.378906 Z M 177 223 " clip-rule="nonzero"/></clipPath><clipPath id="ae71624694"><path d="M 0.550781 0.238281 L 340 0.238281 L 340 184 L 0.550781 184 Z M 0.550781 0.238281 " clip-rule="nonzero"/></clipPath><clipPath id="f1fb7522f2"><path d="M 55.335938 43.382812 L 285 43.382812 L 285 273.414062 L 55.335938 273.414062 Z M 55.335938 43.382812 " clip-rule="nonzero"/></clipPath><clipPath id="6875af3e7a"><rect x="0" width="341" y="0" height="355"/></clipPath></defs><g transform="matrix(1, 0, 0, 1, 14, 6)"><g clip-path="url(#6875af3e7a)"><g clip-path="url(#47c2de1623)"><path fill="#ffffff" d="M 160.15625 335.554688 C 160.457031 327.09375 159.398438 319.363281 157.027344 312.414062 L 157.011719 312.308594 L 156.996094 312.320312 C 152.136719 298.160156 141.726562 287.304688 125.605469 280.53125 C 123.171875 279.511719 120.714844 278.558594 118.238281 277.632812 C 111.433594 274.125 104.085938 271.460938 96.347656 269.457031 C 93.183594 268.636719 90.0625 267.753906 86.980469 266.773438 C 78.082031 263.9375 69.570312 260.292969 61.644531 255.058594 C 57.53125 252.332031 55.015625 253.496094 54.148438 258.363281 C 53.816406 260.246094 54.03125 262.453125 54.699219 264.257812 C 55.929688 267.632812 57.574219 270.644531 59.613281 273.285156 C 62.1875 276.625 65.40625 279.347656 69.191406 281.480469 C 70.476562 282.203125 71.808594 282.882812 73.230469 283.464844 C 79.394531 285.996094 85.84375 287.847656 92.132812 290.121094 C 94.296875 290.902344 96.660156 291.699219 98.296875 293.191406 C 99.566406 294.355469 100.722656 296.875 100.289062 298.300781 C 99.890625 299.628906 97.382812 301.042969 95.726562 301.144531 C 92.699219 301.332031 89.511719 300.929688 86.566406 300.148438 C 84.609375 299.628906 82.699219 299.019531 80.824219 298.359375 C 70.21875 294.636719 60.976562 288.546875 54.300781 279.257812 C 46.191406 267.957031 39.222656 255.824219 31.90625 243.96875 C 27.234375 236.394531 22.472656 228.871094 14.539062 224.332031 C 13.050781 223.484375 11.179688 223.28125 9.3125 223.085938 C 8.539062 227.597656 8.550781 232.304688 9.5 237.195312 C 12.089844 243.953125 14.6875 250.699219 17.488281 257.355469 C 19.136719 261.277344 20.847656 265.167969 22.691406 269 C 30.910156 286.128906 41.03125 302.109375 55.628906 314.824219 C 67.453125 325.113281 94.542969 338.464844 94.601562 338.472656 C 123.121094 354.183594 156.503906 352.949219 156.503906 352.949219 L 162.707031 354.398438 Z M 160.15625 335.554688 " fill-opacity="1" fill-rule="nonzero"/></g><g clip-path="url(#4c8f4cae93)"><path fill="#ffffff" d="M 180.171875 335.554688 C 179.875 327.09375 180.929688 319.363281 183.304688 312.414062 L 183.316406 312.308594 L 183.335938 312.320312 C 188.199219 298.160156 198.601562 287.304688 214.722656 280.53125 C 217.15625 279.511719 219.609375 278.558594 222.09375 277.632812 C 228.894531 274.125 236.242188 271.460938 243.980469 269.457031 C 247.140625 268.636719 250.269531 267.753906 253.347656 266.773438 C 262.25 263.9375 270.757812 260.292969 278.6875 255.058594 C 282.792969 252.332031 285.316406 253.496094 286.183594 258.363281 C 286.511719 260.246094 286.296875 262.453125 285.628906 264.257812 C 284.402344 267.632812 282.753906 270.644531 280.71875 273.285156 C 278.140625 276.625 274.921875 279.347656 271.136719 281.480469 C 269.851562 282.203125 268.519531 282.882812 267.097656 283.464844 C 260.929688 285.996094 254.480469 287.847656 248.195312 290.121094 C 246.03125 290.902344 243.667969 291.699219 242.03125 293.191406 C 240.761719 294.355469 239.601562 296.875 240.042969 298.300781 C 240.4375 299.628906 242.945312 301.042969 244.597656 301.144531 C 247.632812 301.332031 250.820312 300.929688 253.761719 300.148438 C 255.71875 299.628906 257.625 299.019531 259.503906 298.359375 C 270.105469 294.636719 279.351562 288.546875 286.027344 279.257812 C 294.132812 267.957031 301.105469 255.824219 308.417969 243.96875 C 313.09375 236.394531 317.851562 228.871094 325.785156 224.332031 C 327.277344 223.484375 329.148438 223.28125 331.019531 223.085938 C 331.789062 227.597656 331.777344 232.304688 330.828125 237.195312 C 328.242188 243.953125 325.636719 250.699219 322.839844 257.355469 C 321.1875 261.277344 319.480469 265.167969 317.636719 269 C 309.414062 286.128906 299.300781 302.109375 284.695312 314.824219 C 272.875 325.113281 245.78125 338.464844 245.726562 338.472656 C 217.203125 354.183594 183.820312 352.949219 183.820312 352.949219 L 177.621094 354.398438 Z M 180.171875 335.554688 " fill-opacity="1" fill-rule="nonzero"/></g><g clip-path="url(#ae71624694)"><path fill="#ffffff" d="M 339.757812 169.902344 C 339.757812 174.582031 339.558594 179.226562 339.214844 183.808594 C 337.769531 92.417969 262.660156 18.792969 170.167969 18.792969 C 77.671875 18.792969 2.566406 92.417969 1.117188 183.808594 C 0.773438 179.226562 0.566406 174.582031 0.566406 169.902344 C 0.566406 76.238281 76.5 0.300781 170.167969 0.300781 C 263.828125 0.300781 339.757812 76.238281 339.757812 169.902344 Z M 339.757812 169.902344 " fill-opacity="1" fill-rule="nonzero"/></g><g clip-path="url(#f1fb7522f2)"><path fill="#ffffff" d="M 284.976562 150.84375 L 284.976562 165.539062 L 284.746094 165.539062 C 284.59375 168.179688 284.328125 170.785156 283.980469 173.347656 L 284.210938 173.386719 L 283.179688 178.515625 C 282.910156 179.96875 282.644531 181.421875 282.296875 182.878906 L 281.304688 187.8125 L 281.113281 187.777344 C 280.421875 190.300781 279.695312 192.828125 278.855469 195.277344 L 279.046875 195.351562 L 277.207031 199.792969 C 276.597656 201.363281 275.945312 202.929688 275.257812 204.5 L 273.417969 208.976562 L 273.226562 208.902344 C 272.082031 211.234375 270.816406 213.570312 269.515625 215.828125 L 269.707031 215.941406 L 266.53125 220.726562 C 265.996094 221.566406 265.421875 222.410156 264.847656 223.253906 L 261.554688 228.1875 L 261.363281 228.035156 C 259.757812 230.101562 258.113281 232.128906 256.390625 234.082031 L 256.582031 234.234375 L 251.414062 239.402344 C 251.414062 239.402344 251.375 239.441406 251.375 239.441406 L 246.210938 244.605469 L 246.054688 244.414062 C 244.105469 246.136719 242.078125 247.820312 240.011719 249.390625 L 240.164062 249.582031 L 235.226562 252.875 C 234.382812 253.449219 233.582031 253.984375 232.738281 254.558594 L 227.953125 257.773438 L 227.839844 257.582031 C 225.582031 258.882812 223.285156 260.144531 220.914062 261.292969 L 220.988281 261.484375 L 216.511719 263.320312 C 214.941406 264.011719 213.410156 264.660156 211.804688 265.273438 L 207.367188 267.109375 L 207.289062 266.917969 C 204.839844 267.761719 202.3125 268.527344 199.789062 269.175781 L 199.828125 269.367188 L 194.890625 270.363281 C 193.433594 270.667969 191.980469 270.976562 190.527344 271.242188 L 185.398438 272.277344 L 185.359375 272.046875 C 182.796875 272.390625 180.195312 272.660156 177.554688 272.8125 L 177.554688 273.042969 L 162.820312 273.042969 L 162.820312 272.8125 C 160.179688 272.660156 157.574219 272.390625 155.011719 272.046875 L 154.972656 272.277344 L 149.84375 271.242188 C 148.390625 270.976562 146.9375 270.707031 145.484375 270.363281 L 140.546875 269.367188 L 140.585938 269.175781 C 138.058594 268.488281 135.53125 267.761719 133.082031 266.917969 L 133.007812 267.109375 L 128.566406 265.273438 C 127 264.660156 125.429688 264.011719 123.859375 263.320312 L 119.382812 261.445312 L 119.496094 261.253906 C 117.164062 260.105469 114.828125 258.84375 112.570312 257.542969 L 112.457031 257.734375 L 107.710938 254.558594 C 106.828125 253.984375 105.988281 253.410156 105.144531 252.835938 L 100.246094 249.542969 L 100.398438 249.351562 C 98.332031 247.746094 96.304688 246.097656 94.355469 244.378906 L 94.199219 244.570312 L 88.996094 239.363281 L 83.792969 234.160156 L 83.984375 234.007812 C 82.261719 232.054688 80.578125 230.027344 79.007812 227.960938 L 78.816406 228.113281 L 75.523438 223.175781 C 74.949219 222.332031 74.375 221.492188 73.800781 220.613281 L 70.625 215.828125 L 70.816406 215.714844 C 69.515625 213.453125 68.253906 211.160156 67.105469 208.785156 L 66.914062 208.863281 L 65.039062 204.386719 C 64.351562 202.855469 63.699219 201.285156 63.085938 199.679688 L 61.289062 195.316406 L 61.480469 195.238281 C 60.636719 192.789062 59.871094 190.261719 59.222656 187.738281 L 59.03125 187.777344 L 58.035156 182.878906 C 57.730469 181.421875 57.421875 179.96875 57.15625 178.515625 L 56.121094 173.386719 L 56.351562 173.347656 C 56.007812 170.785156 55.738281 168.179688 55.585938 165.539062 L 55.355469 165.539062 L 55.355469 150.84375 L 130.710938 156.472656 C 130.785156 155.015625 130.902344 153.601562 131.132812 152.222656 L 56.121094 143.039062 L 57.574219 135.804688 L 59.03125 128.570312 L 131.820312 148.777344 C 132.164062 147.402344 132.585938 146.023438 133.042969 144.683594 L 61.289062 121.070312 L 66.953125 107.445312 L 134.421875 141.46875 C 135.035156 140.167969 135.683594 138.90625 136.449219 137.71875 L 70.625 100.519531 L 74.722656 94.398438 L 78.816406 88.273438 L 138.363281 134.808594 C 139.207031 133.660156 140.125 132.550781 141.082031 131.519531 L 83.792969 82.226562 L 88.996094 77.023438 L 94.199219 71.816406 L 143.492188 129.070312 C 144.527344 128.113281 145.636719 127.195312 146.785156 126.351562 L 100.246094 66.804688 L 106.371094 62.710938 L 112.492188 58.613281 L 149.691406 124.402344 C 150.917969 123.671875 152.140625 122.984375 153.441406 122.371094 L 119.421875 54.941406 L 126.234375 52.109375 L 133.042969 49.277344 L 156.65625 121.070312 C 157.996094 120.574219 159.335938 120.191406 160.753906 119.847656 L 140.546875 47.019531 L 147.777344 45.5625 L 154.972656 44.148438 L 164.160156 119.15625 C 165.535156 118.929688 166.953125 118.8125 168.40625 118.738281 L 162.820312 43.382812 L 177.515625 43.382812 L 171.890625 118.738281 C 173.34375 118.8125 174.757812 118.929688 176.136719 119.15625 L 185.320312 44.148438 L 199.789062 47.054688 L 179.582031 119.847656 C 180.957031 120.191406 182.335938 120.613281 183.675781 121.070312 L 207.289062 49.316406 L 214.101562 52.148438 L 220.914062 54.976562 L 186.890625 122.449219 C 188.191406 123.0625 189.453125 123.710938 190.640625 124.476562 L 227.839844 58.691406 L 233.964844 62.785156 L 240.085938 66.878906 L 193.550781 126.351562 C 194.699219 127.195312 195.808594 128.113281 196.839844 129.070312 L 246.132812 71.816406 L 251.335938 77.023438 L 256.542969 82.226562 L 199.289062 131.519531 C 200.246094 132.550781 201.164062 133.660156 202.007812 134.808594 L 261.554688 88.273438 L 265.652344 94.398438 L 269.746094 100.519531 L 203.960938 137.71875 C 204.6875 138.941406 205.375 140.167969 205.988281 141.46875 L 273.457031 107.445312 L 279.121094 121.070312 L 207.289062 144.683594 C 207.785156 146.023438 208.167969 147.363281 208.511719 148.777344 L 281.304688 128.570312 L 284.210938 143.039062 L 209.203125 152.222656 C 209.433594 153.601562 209.546875 155.015625 209.625 156.472656 Z M 284.976562 150.84375 " fill-opacity="1" fill-rule="nonzero"/></g></g></g></svg>