<svg xmlns="http://www.w3.org/2000/svg" width="48" height="48" fill="none"><circle cx="24" cy="24" r="24" fill="#FFC689"/><g clip-path="url(#a)"><path fill="#fff" fill-rule="evenodd" d="m28.541 21.207.995-1.936c.381-.741.072-1.665-.649-2.022a1.505 1.505 0 0 0-2.022.65l-.783 1.522a.093.093 0 0 0 .004.092.094.094 0 0 0 .081.044 1.736 1.736 0 0 1 1.376.636l.842 1.03a.094.094 0 0 0 .156-.017Zm3.682-8.29c.428-.606.938-.917 1.756-.917 1.101 0 2.07.824 2.07 1.917 0 .903-.479 1.79-1.199 2.668-.693.847-1.618 1.694-2.543 2.541a.238.238 0 0 1-.321 0c-.925-.847-1.85-1.694-2.544-2.54-.72-.88-1.199-1.766-1.199-2.67 0-1.092.97-1.916 2.071-1.916.818 0 1.328.31 1.756.918a.094.094 0 0 0 .153 0ZM17.056 24.383c1.034 1.04 1.138 1.319 1.144 2.783v.01c-.04.41.085.82.346 1.141l3.966 4.782a.094.094 0 0 1-.056.152c-.994.183-1.898.074-2.8-.241-1.084-.38-2.175-1.058-3.416-1.89-.565-.38-1.216-.842-1.818-1.718-.61-.889-1.18-2.209-1.581-4.309-.332-1.737-1.842-4.227.235-4.898h.002c1.338-.397 2.146 1.248 2.67 2.314.085.172.162.33.234.465a.238.238 0 0 0 .421-.003l4.057-7.838a1.502 1.502 0 1 1 2.662 1.391l-2.801 5.449a.237.237 0 0 0 .191.348.237.237 0 0 0 .232-.13l3.401-6.615c.63-1.219 2.37-1.048 2.774.21.12.374.09.78-.086 1.132l-1.453 2.826a.09.09 0 0 1-.037.04 1.725 1.725 0 0 0-.842 1.186.094.094 0 0 1-.156.052 1.729 1.729 0 0 0-.993-.444c-1.3-.134-2.23 1.147-1.802 2.313a.095.095 0 0 1-.05.118.095.095 0 0 1-.046.008 1.729 1.729 0 0 0-1.637 2.59.094.094 0 0 1-.08.141 1.576 1.576 0 0 0-.969.355.093.093 0 0 1-.093.015.093.093 0 0 1-.059-.073c-.136-.874-.543-1.315-1.222-1.998-.22-.222-.559.114-.338.336Zm1.85 3.622A.074.074 0 0 1 18.9 28c-.582-.743-.005-1.871.978-1.77a1.095 1.095 0 0 1 .754.415l2.784 3.424a.238.238 0 0 0 .37-.3l-3.446-4.237c-.695-.855-.016-2.153 1.102-2.038a1.246 1.246 0 0 1 .859.472l3.566 4.386a.237.237 0 1 0 .37-.3l-3.569-4.389-.478-.587a1.254 1.254 0 0 1 1.957-1.57l4.036 4.962a.237.237 0 1 0 .37-.3l-3.314-4.074c-.543-.669-.279-1.609.403-1.931a1.257 1.257 0 0 1 1.53.333l4.793 5.859a.238.238 0 0 0 .412-.085c.305-1.048.59-2.927 1.91-2.822h.002c1.818.194 1.005 2.52 1.033 4.035.035 1.826-.208 3.031-.562 3.883-.349.838-.81 1.337-1.215 1.753-2.309 2.372-3.892 3.614-7.322 2.422-1.04-.362-1.951-1.294-2.766-2.128l-.418-.424-4.135-4.984Zm11.772-4.184a.094.094 0 0 1-.156.016l-1.678-2.053a.092.092 0 0 1-.011-.102l.58-1.129a1.321 1.321 0 1 1 2.351 1.206l-1.086 2.062Z" clip-rule="evenodd"/></g><defs><clipPath id="a"><path fill="#fff" d="M12 12h24v24H12z"/></clipPath></defs></svg>